<svg width="28" height="27" viewBox="0 0 28 27" fill="none" xmlns="http://www.w3.org/2000/svg">
<path d="M1.21683 0C1.40169 0.0743885 1.53053 0.206679 1.67207 0.342141C1.9333 0.587464 2.20254 0.818021 2.4836 1.04056C2.50671 1.05889 2.52982 1.07722 2.55363 1.0961C2.71111 1.22085 2.86926 1.34473 3.02765 1.46833C3.12244 1.54249 3.21692 1.61704 3.31138 1.69162C3.73318 2.02356 4.16303 2.33947 4.6033 2.64636C8.02367 5.0456 8.02367 5.0456 9.17939 6.56007C9.22731 6.6204 9.27533 6.68066 9.32342 6.74086C9.6262 7.12198 9.9105 7.51106 10.1822 7.91485C10.416 8.26051 10.6661 8.59195 10.9239 8.91991C10.9824 8.99466 11.04 9.07015 11.0974 9.14574C11.5182 9.68636 12.1299 10.2358 12.8306 10.3508C13.7191 10.4324 14.397 10.0981 15.1042 9.60044C15.877 9.05707 16.6158 8.70672 17.5651 8.59514C18.3974 8.49676 19.1347 8.22818 19.8747 7.83567C19.9135 7.81783 19.9522 7.79998 19.9922 7.7816C20.0221 7.79653 20.0519 7.81146 20.0827 7.82684C20.0515 7.86026 20.0203 7.89367 19.9881 7.9281C19.7059 8.23206 19.4356 8.54216 19.1778 8.8674C19.1459 8.90756 19.114 8.94771 19.0811 8.98909C18.828 9.31616 18.6292 9.65024 18.4398 10.0182C18.381 10.1306 18.3219 10.2429 18.2628 10.3551C18.241 10.3966 18.241 10.3966 18.2187 10.4389C18.0891 10.6849 17.9518 10.9259 17.8121 11.1663C16.8832 12.6437 16.8832 12.6437 16.7404 14.3162C17.1296 15.5917 18.6298 16.2704 19.7075 16.8559C20.3303 17.1945 20.7886 17.6087 21.2496 18.146C21.5836 18.534 21.9401 18.8825 22.3405 19.2013C22.5503 19.3727 22.7444 19.5618 22.9405 19.7485C23.0892 19.8898 23.2392 20.0284 23.3942 20.1628C23.5279 20.2789 23.6549 20.3986 23.7784 20.5257C23.8804 20.6293 23.9778 20.7242 24.0922 20.8141C24.1854 20.8901 24.2527 20.9605 24.3298 21.0516C24.4951 21.2458 24.6745 21.4237 24.8557 21.603C25.0841 21.8297 25.3043 22.0579 25.5117 22.3042C25.5802 22.3833 25.6489 22.4622 25.7176 22.5411C26.1236 23.0077 26.526 23.4754 26.9051 23.9643C27.0561 24.1579 27.2139 24.3444 27.3751 24.5296C27.5998 24.7877 27.8047 25.054 28 25.3354C27.9208 25.5107 27.9208 25.5107 27.819 25.5616C27.454 25.5797 27.163 25.4204 26.8916 25.1865C26.7167 25.0256 26.5512 24.8553 26.3854 24.6851C26.3357 24.6348 26.286 24.5847 26.2362 24.5345C26.008 24.3037 25.7847 24.0701 25.5735 23.8236C25.4991 23.7373 25.4206 23.6563 25.3392 23.5767C25.3137 23.5516 25.2882 23.5265 25.262 23.5007C25.2399 23.4791 25.2178 23.4575 25.195 23.4353C25.1651 23.4054 25.1353 23.3756 25.1045 23.3448C25.3534 23.7006 25.622 24.0313 25.9044 24.3605C26.0252 24.5024 26.1426 24.647 26.2601 24.7916C26.3456 24.8967 26.4316 25.0014 26.5178 25.1059C27.2376 25.9802 27.2376 25.9802 27.2228 26.1547C27.1856 26.2403 27.1856 26.2403 27.0499 26.3308C26.6779 26.3764 26.4183 26.2389 26.1221 26.0211C25.6189 25.5983 25.3032 25.0282 24.9769 24.4677C24.7078 24.0056 24.423 23.5538 24.1382 23.1012C23.9911 22.8668 23.8466 22.6308 23.702 22.3947C23.9144 22.8994 24.1502 23.3855 24.4089 23.8679C24.4447 23.935 24.4804 24.0021 24.5161 24.0692C24.7921 24.5863 25.0767 25.0982 25.3699 25.6057C25.4693 25.7831 25.5286 25.8965 25.5117 26.1045C25.4391 26.1771 25.3633 26.1627 25.2629 26.1667C24.9117 26.1617 24.6755 25.9975 24.4231 25.7652C24.0424 25.3612 23.8042 24.8379 23.5657 24.3421C23.5229 24.2534 23.4792 24.1653 23.4353 24.0771C23.1386 23.4724 22.9026 22.8421 22.6615 22.2137C22.6615 22.3577 22.689 22.4603 22.7295 22.5981C22.7442 22.6481 22.7589 22.6981 22.774 22.7497C22.7901 22.8033 22.8061 22.8569 22.8226 22.9122C22.8392 22.9674 22.8557 23.0227 22.8728 23.0797C23.0988 23.8275 23.3599 24.5455 23.6769 25.2601C23.6977 25.3077 23.7186 25.3554 23.74 25.4045C23.7589 25.4469 23.7777 25.4892 23.7971 25.5328C23.8394 25.6569 23.8493 25.7483 23.8377 25.8783C23.7925 25.9236 23.7925 25.9236 23.6568 25.9377C23.3308 25.931 23.0281 25.7538 22.7958 25.5339C22.0141 24.5862 21.8217 22.9383 21.6209 21.7613C21.6975 22.8242 21.816 23.8683 22.1056 24.8964C22.119 24.9441 22.1323 24.9918 22.1461 25.041C22.1582 25.0827 22.1704 25.1244 22.1828 25.1673C22.2117 25.3026 22.2166 25.4237 22.209 25.5616C22.1638 25.6069 22.1638 25.6069 22.0281 25.6238C21.7098 25.6167 21.4621 25.419 21.2477 25.1997C20.5874 24.3924 20.677 23.0281 20.6454 22.0413C20.6434 21.9835 20.6415 21.9257 20.6395 21.8662C20.6347 21.7257 20.6301 21.5852 20.6256 21.4446C20.5291 22.0751 20.5305 22.7113 20.5294 23.3476C20.5293 23.3802 20.5292 23.4127 20.5291 23.4463C20.5282 23.7619 20.5285 24.0743 20.5701 24.3877C20.5876 24.538 20.5863 24.6865 20.586 24.8378C20.5862 24.9259 20.5862 24.9259 20.5863 25.0159C20.5803 25.1545 20.5803 25.1545 20.5351 25.1997C20.235 25.238 20.016 25.1366 19.766 24.9735C19.5387 24.7812 19.4562 24.5872 19.404 24.2949C19.3613 23.7605 19.4346 23.2451 19.5179 22.7187C19.557 22.4631 19.5915 22.2068 19.6264 21.9506C19.6461 21.8061 19.666 21.6617 19.6859 21.5173C19.6975 21.4327 19.7091 21.3482 19.7207 21.2637C19.3772 22.414 19.0606 23.5426 18.9969 24.7473C18.6744 24.7771 18.4527 24.6994 18.1825 24.5211C18.0145 24.3676 17.9212 24.2175 17.8987 23.9875C17.8896 23.6821 17.9124 23.4377 18.0074 23.146C18.0174 23.1151 18.0274 23.0842 18.0377 23.0524C18.1575 22.6869 18.2899 22.3258 18.4229 21.9649C18.448 21.8963 18.4731 21.8277 18.4982 21.759C18.5587 21.5938 18.6194 21.4287 18.6802 21.2637C18.4535 21.6521 18.2378 22.0423 18.044 22.4484C18.0209 22.4966 17.9978 22.5448 17.974 22.5944C17.7509 23.0675 17.5358 23.5583 17.4134 24.0687C17.1731 24.1451 17.0432 24.1029 16.8168 23.9923C16.6413 23.9015 16.501 23.8133 16.3728 23.6615C16.2766 23.1482 16.7079 22.5928 16.9582 22.1657C17.0209 22.0578 17.0834 21.9497 17.146 21.8417C17.1758 21.7904 17.2056 21.7391 17.2363 21.6862C17.3592 21.4718 17.4775 21.2551 17.5944 21.0375C17.0444 21.7363 16.4966 22.4383 16.0117 23.1845C15.9415 23.2925 15.8761 23.3891 15.7847 23.4805C15.4661 23.4872 15.2576 23.3102 15.0156 23.1186C14.9251 23.0281 14.9251 23.0281 14.9103 22.9231C14.9289 22.7707 14.9789 22.7029 15.0721 22.5813C15.1053 22.5378 15.1384 22.4942 15.1725 22.4493C15.3187 22.263 15.467 22.0783 15.6158 21.8941C15.8769 21.5699 16.125 21.2361 16.3728 20.9017C16.1654 21.0582 15.9876 21.2375 15.8059 21.4222C15.7396 21.489 15.6734 21.5559 15.6071 21.6227C15.5034 21.7275 15.3997 21.8325 15.2962 21.9375C15.1958 22.0393 15.0951 22.1408 14.9944 22.2422C14.9482 22.2893 14.9482 22.2893 14.9011 22.3373C14.754 22.4852 14.6186 22.6213 14.4274 22.7114C14.2491 22.7023 14.1339 22.6338 13.9892 22.5333C13.9545 22.5095 13.9198 22.4858 13.884 22.4613C13.7941 22.3947 13.7941 22.3947 13.7036 22.3042C13.716 22.1322 13.8105 22.0396 13.9241 21.9168C13.9791 21.8574 13.9791 21.8574 14.0351 21.7968C14.1996 21.6254 14.3683 21.4582 14.537 21.2909C14.7831 21.0425 14.9986 20.7825 15.1966 20.4946C15.1439 20.5398 15.1439 20.5398 15.0902 20.5859C14.8005 20.8335 14.5072 21.0747 14.2065 21.3086C13.9944 21.4736 13.7873 21.6438 13.5816 21.8166C13.4405 21.9255 13.3491 21.9875 13.1692 21.9875C12.9234 21.9104 12.7589 21.7468 12.6178 21.5351C12.6242 21.3435 12.7589 21.2548 12.8892 21.1279C12.9292 21.0879 12.9692 21.0479 13.0104 21.0067C13.3169 20.7003 13.6233 20.3938 13.9298 20.0874C13.7815 20.1563 13.6528 20.2412 13.5194 20.3355C13.4529 20.3822 13.4529 20.3822 13.3851 20.4299C13.2931 20.4949 13.2011 20.5599 13.1091 20.625C12.8959 20.7747 12.6818 20.923 12.4626 21.0636C12.4281 21.086 12.3936 21.1083 12.358 21.1313C12.229 21.1842 12.1611 21.1687 12.0296 21.1279C11.9383 21.0737 11.9383 21.0737 11.8571 21.0064C11.8298 20.9847 11.8024 20.9631 11.7743 20.9408C11.684 20.8168 11.6926 20.7348 11.7129 20.585C11.7794 20.4806 11.7794 20.4806 11.8713 20.3843C11.9041 20.3496 11.9369 20.315 11.9708 20.2793C12.095 20.1583 12.2231 20.0439 12.3571 19.9338C12.4421 19.8563 12.5064 19.774 12.5725 19.6802C12.5241 19.7043 12.4757 19.7285 12.4258 19.7534C12.0113 19.9565 11.5949 20.1348 11.1616 20.2938C10.6747 20.4743 10.2116 20.689 9.74774 20.9215C9.69968 20.9455 9.69968 20.9455 9.65065 20.9699C9.27475 21.1453 9.27475 21.1453 8.95318 21.3994C8.92332 21.3994 8.89346 21.3994 8.8627 21.3994C8.84984 21.4254 8.83697 21.4513 8.82372 21.4781C8.77446 21.5759 8.7236 21.6727 8.67201 21.7693C8.45377 22.1804 8.24156 22.5931 8.04269 23.014C7.61357 23.9197 7.17546 24.824 6.68826 25.7002C6.66623 25.7405 6.64419 25.7807 6.62148 25.8222C6.46463 26.0984 6.25983 26.4559 5.96722 26.6022C5.76302 26.6192 5.6494 26.6234 5.46391 26.5343C5.158 26.2683 4.97813 25.9565 4.88142 25.5616C4.87866 25.4712 4.87797 25.3806 4.88142 25.2902C4.81756 25.2933 4.81756 25.2933 4.75241 25.2966C4.23464 25.3116 4.23464 25.3116 4.0812 25.2138C3.8813 25.0139 3.79965 24.8358 3.7912 24.5557C3.79172 24.5032 3.79225 24.4507 3.79279 24.3967C3.79319 24.3437 3.7936 24.2908 3.79402 24.2362C3.79455 24.1958 3.79507 24.1555 3.79561 24.1139C3.76115 24.1155 3.72668 24.1171 3.69117 24.1187C3.03532 24.1359 3.03532 24.1359 2.77343 23.9183C2.56925 23.6921 2.51469 23.461 2.52884 23.1638C2.48055 23.1564 2.48055 23.1564 2.43129 23.1488C2.15244 23.0833 1.85989 22.9253 1.66076 22.7171C1.57899 22.5761 1.53933 22.4725 1.5519 22.3078C1.62095 22.0661 1.80014 21.9118 2.00715 21.7815C2.21068 21.6757 2.42055 21.5873 2.63276 21.5007C3.53125 21.1337 4.32758 20.6644 5.10763 20.0874C5.13808 20.065 5.16854 20.0426 5.19992 20.0195C6.36636 19.1544 7.13558 18.0123 7.36972 16.5585C7.33333 16.5576 7.29694 16.5566 7.25944 16.5557C7.0263 16.4943 6.87238 16.3509 6.69109 16.1966C6.7176 15.9694 6.76737 15.7697 6.84095 15.5519C6.97588 15.1404 7.06091 14.721 7.14351 14.2964C7.12714 14.3357 7.12714 14.3357 7.11044 14.3757C6.59027 15.6188 6.59027 15.6188 6.41964 15.7894C6.26174 15.8073 6.17471 15.8057 6.03791 15.7215C5.88391 15.5713 5.74382 15.411 5.60529 15.2465C5.6713 15.0673 5.75679 14.9102 5.85412 14.746C6.09392 14.3357 6.30103 13.9086 6.51012 13.4821C6.49335 13.5045 6.47658 13.5269 6.45929 13.55C6.38584 13.6481 6.31229 13.7461 6.23867 13.844C6.21781 13.8718 6.19694 13.8995 6.17545 13.9281C5.93419 14.2473 5.69999 14.5495 5.37908 14.7941C5.07004 14.697 4.89762 14.4482 4.70045 14.2059C4.76973 14.0435 4.86716 13.9369 4.98887 13.8101C5.18212 13.6011 5.35834 13.3847 5.52894 13.1569C5.55115 13.1274 5.57337 13.0978 5.59625 13.0674C5.74608 12.8652 5.88209 12.6567 6.01246 12.4415C5.99375 12.4607 5.97504 12.4799 5.95576 12.4996C5.87121 12.5861 5.78633 12.6721 5.70143 12.7582C5.65725 12.8035 5.65725 12.8035 5.61218 12.8497C5.56975 12.8926 5.56975 12.8926 5.52647 12.9363C5.50041 12.9629 5.47434 12.9894 5.44749 13.0167C5.37908 13.0749 5.37908 13.0749 5.28859 13.0749C5.28859 13.1048 5.28859 13.1346 5.28859 13.1654C5.21201 13.2361 5.13225 13.3035 5.05107 13.369C4.98494 13.4229 4.98494 13.4229 4.91747 13.4778C4.72076 13.6251 4.58858 13.698 4.33852 13.663C4.09944 13.5086 3.91934 13.2867 3.79561 13.0296C3.85604 12.8484 3.97428 12.792 4.12644 12.6903C4.40374 12.4992 4.65085 12.2905 4.89503 12.0591C5.02815 11.9335 5.16568 11.8144 5.30574 11.6966C5.38689 11.6198 5.44874 11.5361 5.5148 11.4462C5.48839 11.464 5.46198 11.4817 5.43477 11.5C5.3126 11.5821 5.19032 11.664 5.06804 11.7459C5.02652 11.7738 4.98499 11.8018 4.94221 11.8306C3.97829 12.4754 3.97829 12.4754 3.61995 12.464C3.37649 12.4069 3.21827 12.2115 3.08765 12.0094C2.93684 11.7282 2.93684 11.7282 2.9346 11.5761C3.01138 11.4368 3.1317 11.4189 3.27816 11.367C3.89284 11.1378 4.68321 10.83 5.15287 10.3604C5.12972 10.3713 5.10658 10.3822 5.08273 10.3935C3.48312 11.1428 3.48312 11.1428 2.80029 11.039C2.46573 10.9089 2.2574 10.5194 2.08544 10.2172C2.03118 10.0889 2.03118 10.0889 2.07642 9.95321C2.12376 9.94711 2.12376 9.94711 2.17204 9.9409C2.91127 9.84377 3.62227 9.70761 4.33852 9.50079C4.3728 9.49095 4.40709 9.4811 4.44241 9.47096C4.5807 9.43122 4.71886 9.39121 4.85668 9.34986C4.9719 9.31982 4.9719 9.31982 5.10763 9.31982C5.10763 9.28996 5.10763 9.2601 5.10763 9.22934C5.07334 9.2403 5.03904 9.25126 5.00371 9.26256C4.20126 9.49857 2.97438 9.83396 2.16602 9.50485C1.79969 9.30326 1.49134 8.94245 1.36652 8.54046C1.35255 8.45457 1.35255 8.45457 1.35255 8.3245C1.36748 8.30957 1.38241 8.29464 1.3978 8.27926C1.49712 8.28345 1.59632 8.29057 1.6954 8.2987C2.14845 8.33163 2.60089 8.33133 3.05493 8.3304C3.19656 8.33015 3.33818 8.3304 3.4798 8.33068C4.13659 8.33092 4.13659 8.33092 4.79093 8.27926C4.76491 8.2786 4.73889 8.27794 4.71208 8.27726C1.98825 8.2016 1.98825 8.2016 1.38012 7.68228C1.142 7.41525 0.924475 7.06159 0.945378 6.69579C1.27877 6.68059 1.55953 6.7372 1.88132 6.82021C2.77262 7.03785 3.69234 7.16414 4.60997 7.19345C4.58097 7.18826 4.55197 7.18306 4.52209 7.17771C2.3071 6.77675 2.3071 6.77675 1.48828 6.3791C1.44547 6.35834 1.40267 6.33758 1.35856 6.31618C1.01067 6.1283 0.754372 5.85371 0.628685 5.47426C0.615727 5.3504 0.622422 5.23759 0.628685 5.11233C0.65108 5.08993 0.65108 5.08993 0.673927 5.06709C0.970739 5.08572 1.2223 5.17059 1.49959 5.2735C2.36663 5.58466 3.25432 5.83556 4.15755 6.01716C4.1311 6.00815 4.10466 5.99913 4.07741 5.98984C3.45697 5.77648 2.84774 5.54223 2.24325 5.28764C2.21187 5.27456 2.18048 5.26149 2.14814 5.24802C0.725602 4.65388 0.725601 4.65388 0.402476 3.98128C0.351018 3.81356 0.347494 3.65893 0.357234 3.48362C0.402023 3.43883 0.402023 3.43883 0.447717 3.39314C0.620584 3.40925 0.751239 3.47122 0.90208 3.55396C0.968531 3.58975 0.968531 3.58975 1.03633 3.62627C1.10748 3.66483 1.10748 3.66483 1.18007 3.70418C1.59399 3.92417 2.0119 4.12468 2.44401 4.30646C2.49301 4.32712 2.54201 4.34779 2.5925 4.36908C2.8258 4.46567 3.05462 4.54791 3.29795 4.61467C3.26318 4.59695 3.22841 4.57924 3.19259 4.56099C0.28567 3.07688 0.28567 3.07688 0.019864 2.32589C-0.0157731 2.1677 -0.0001592 2.05617 0.0405409 1.90016C0.143572 1.86426 0.199087 1.84607 0.302449 1.88685C0.329859 1.90448 0.357269 1.92211 0.38551 1.94027C0.432727 1.96997 0.432727 1.96997 0.480898 2.00027C0.514738 2.02229 0.548578 2.0443 0.583443 2.06699C0.657176 2.11338 0.73093 2.15974 0.804704 2.20607C0.861959 2.24241 0.861959 2.24241 0.920371 2.27948C1.57306 2.69259 2.23999 3.0581 2.93602 3.39314C2.90665 3.37441 2.87729 3.35569 2.84704 3.3364C2.76595 3.28469 2.68486 3.23297 2.60377 3.18124C2.48167 3.10362 2.35902 3.0269 2.23618 2.95044C0.370204 1.78632 0.370204 1.78632 0.104869 0.993553C0.072076 0.841126 0.0774611 0.69824 0.0857828 0.542902C0.221508 0.49766 0.221508 0.49766 0.295313 0.533745C0.321929 0.553272 0.348545 0.572798 0.375967 0.592916C0.421483 0.625726 0.421483 0.625726 0.467919 0.659199C0.500444 0.683339 0.532968 0.70748 0.566477 0.732352C0.635567 0.782439 0.704667 0.832511 0.773777 0.882569C0.809388 0.908594 0.845 0.93462 0.88169 0.961433C1.05702 1.08879 1.23455 1.21299 1.41193 1.33746C1.77799 1.59496 1.77799 1.59496 1.9407 1.71919C1.95563 1.70426 1.97056 1.68933 1.98594 1.67395C1.96401 1.65686 1.94208 1.63977 1.91949 1.62217C1.60494 1.36387 1.29227 1.03087 1.17159 0.633386C1.16116 0.484229 1.16116 0.484229 1.1631 0.328003C1.1634 0.275982 1.16369 0.223961 1.16399 0.170364C1.17159 0.0452418 1.17159 0.0452418 1.21683 0Z" fill="black" style="fill:black;fill-opacity:1;"/>
</svg>
